# xmcd
#
# Track frame offsets: 
#        150
#        674
#        14049
#        29811
#        44097
#        60985
#        76493
#        100145
#        117033
#        133713
#        149272
#        164595
#        184774
#        203172
#        218466
#        228512
#        244847
#        262701
#        278915
#        298157
#        310201
#
# Disc length: 4386 seconds
#
# Revision: 0
# Processed by: cddbd v1.5.2PL0 Copyright (c) Steve Scherf et al.
# Submitted via: ExactAudioCopy v0.99pb4
#
DISCID=33112015
DTITLE=Various Artist - prevue promo 1042A-3
DYEAR=2000
DGENRE=pop
TTITLE0=blank - data
TTITLE1=Citizen King - Long Walk Home 
TTITLE2=Alice Deejay - Back In My Life 
TTITLE3=Tracv Bonham - Behind Every Good Woman (AC radio mix)
TTITLE4=Tracv Bonham - Behind Every Good Woman(full pop mix) 
TTITLE5=D-Cru - I Will Be Waiting 
TTITLE6=Kim Waters - Am I The Same Girl (SoulfuJ Strut) 
TTITLE7=ATB - Don't Stop 
TTITLE8=Shannon  - Give Me Tonight(hex hector mix)
TTITLE9=Aaliyah (No Timbaland Versionk Try Again(no Timbaland version)
TTITLE10=Jermaine Dupri and NAS feat. Monica - I've Got To Have It 
TTITLE11=Lou Reed - Paranoia Key Of E 
TTITLE12=Terry Radigan - My Love Is Real 
TTITLE13=Jesse James Dupree - Mainline 
TTITLE14=Rollins Band - Get Some Go Again 
TTITLE15=Oueens Of The Stone Age - The Lost Art Of Keeping A Secret 
TTITLE16=deftones - Change (in the House of flies) 
TTITLE17=Kottonmouth Kings -  Peace Not Greed(lyrics)
TTITLE18=Iron Maiden - The Wicker Man 
TTITLE19=MXPX - Responsibility
TTITLE20=Nine Inch Nails  - Starsuckers, Inc. 
EXTD=
EXTT0=
EXTT1=
EXTT2=
EXTT3=
EXTT4=
EXTT5=
EXTT6=
EXTT7=
EXTT8=
EXTT9=
EXTT10=
EXTT11=
EXTT12=
EXTT13=
EXTT14=
EXTT15=
EXTT16=
EXTT17=
EXTT18=
EXTT19=
EXTT20=
PLAYORDER=
